        <svg id="图层_1" data-name="图层 1" xmlns="http://www.w3.org/2000/svg" viewBox="0 0 451 451">
            <defs>
                <style>
                    .cls-1 {
                        fill: none;
                        stroke: red;
                        stroke-miterlimit: 10;
                    }
                </style>
            </defs>
            <title>完整轮盘_红色轮廓</title>
            <path class="cls-1"
                d="M177.65,110a125.07,125.07,0,0,0-40.54,27.12L66.4,66.4a225.26,225.26,0,0,1,73-48.82Z" />
            <path class="cls-1"
                d="M137.11,137.11A125.07,125.07,0,0,0,110,177.65L17.58,139.37a225.26,225.26,0,0,1,48.82-73Z" />
            <path class="cls-1" d="M110,177.65a124.48,124.48,0,0,0-9.49,47.85H.5a224.18,224.18,0,0,1,17.08-86.13Z" />
            <path class="cls-1"
                d="M110,273.35,17.58,311.63A224.18,224.18,0,0,1,.5,225.5h100A124.48,124.48,0,0,0,110,273.35Z" />
            <path class="cls-1"
                d="M137.11,313.89,66.4,384.6a225.26,225.26,0,0,1-48.82-73L110,273.35A125.07,125.07,0,0,0,137.11,313.89Z" />
            <path class="cls-1"
                d="M177.65,341l-38.28,92.41a225.26,225.26,0,0,1-73-48.82l70.71-70.71A125.07,125.07,0,0,0,177.65,341Z" />
            <path class="cls-1"
                d="M225.5,350.5v100a224.18,224.18,0,0,1-86.13-17.08L177.65,341A124.48,124.48,0,0,0,225.5,350.5Z" />
            <path class="cls-1" d="M311.47,433.49a224.33,224.33,0,0,1-86,17v-100a124.57,124.57,0,0,0,47.76-9.45Z" />
            <path class="cls-1"
                d="M384.6,384.6a225.26,225.26,0,0,1-73,48.82L273.35,341a125.07,125.07,0,0,0,40.54-27.12Z" />
            <path class="cls-1"
                d="M433.42,311.63a225.26,225.26,0,0,1-48.82,73l-70.71-70.71A125.07,125.07,0,0,0,341,273.35Z" />
            <path class="cls-1"
                d="M450.5,225.5a224.18,224.18,0,0,1-17.08,86.13L341,273.35a124.48,124.48,0,0,0,9.49-47.85Z" />
            <path class="cls-1"
                d="M450.5,225.5h-100A124.48,124.48,0,0,0,341,177.65l92.41-38.28A224.18,224.18,0,0,1,450.5,225.5Z" />
            <path class="cls-1"
                d="M433.42,139.37,341,177.65a125.07,125.07,0,0,0-27.12-40.54L384.6,66.4A225.26,225.26,0,0,1,433.42,139.37Z" />
            <path class="cls-1"
                d="M384.6,66.4l-70.71,70.71A125.07,125.07,0,0,0,273.35,110l38.28-92.41A225.26,225.26,0,0,1,384.6,66.4Z" />
            <path class="cls-1"
                d="M311.63,17.58,273.35,110a124.48,124.48,0,0,0-47.85-9.49V.5A224.18,224.18,0,0,1,311.63,17.58Z" />
            <path class="cls-1"
                d="M225.5.5v100A124.57,124.57,0,0,0,177.74,110L139.53,17.51A224.33,224.33,0,0,1,225.5.5Z" />
            <path class="cls-1"
                d="M200.5,225.5a25,25,0,0,0,1.9,9.57L110,273.35a125.38,125.38,0,0,1,0-95.7l92.41,38.28A25,25,0,0,0,200.5,225.5Z" />
            <path class="cls-1" d="M273.26,341.05a125.4,125.4,0,0,1-95.61,0l38.28-92.41a25.06,25.06,0,0,0,19.12,0Z" />
            <path class="cls-1"
                d="M273.35,110,235.07,202.4a25.06,25.06,0,0,0-19.12,0L177.74,110a125.4,125.4,0,0,1,95.61,0Z" />
            <path class="cls-1"
                d="M350.5,225.5A124.48,124.48,0,0,1,341,273.35L248.6,235.07a25.05,25.05,0,0,0,0-19.14L341,177.65A124.48,124.48,0,0,1,350.5,225.5Z" />
            <path class="cls-1"
                d="M341,177.65,248.6,215.93a25,25,0,0,0-13.53-13.53L273.35,110A125.35,125.35,0,0,1,341,177.65Z" />
            <path class="cls-1"
                d="M215.93,248.6,177.65,341A125.35,125.35,0,0,1,110,273.35l92.41-38.28a25,25,0,0,0,13.53,13.53Z" />
            <path class="cls-1"
                d="M250.5,225.5a25,25,0,0,1-15.43,23.1h0a25,25,0,0,1-19.12-46.21h0A25,25,0,0,1,250.5,225.5Z" />
            <path class="cls-1" d="M341,273.17a125.35,125.35,0,0,1-67.43,67.89l-38.6-92.28a25,25,0,0,0,13.49-13.57Z" />
            <path class="cls-1" d="M215.93,202.4a25,25,0,0,0-13.53,13.53L110,177.65A125.35,125.35,0,0,1,177.65,110Z" />
        </svg>